<?xml version="1.0" encoding="utf-8"?>
<!-- Generator: Adobe Illustrator 19.0.0, SVG Export Plug-In . SVG Version: 6.00 Build 0)  -->
<svg version="1.1" id="Layer_1" fill="#fff" xmlns="http://www.w3.org/2000/svg" xmlns:xlink="http://www.w3.org/1999/xlink" x="0px" y="0px"
	 viewBox="0 0 100 100" style="enable-background:new 0 0 100 100;" xml:space="preserve">
<g id="XMLID_27_">
	<g id="XMLID_91_">
		<path id="XMLID_92_" d="M98.8,49.5c0,0-0.8,7-7.2,6.1c-6.2-0.9-5.5-6.1-5.5-6.1c2.7-21-13.8-36.6-36.2-35.9
			c-19.8,0.7-35.5,15-36.2,32.9C13,67.9,30,85.7,48.1,85.8c0.4,0,0.7,0,1.1,0.1c3.1,0.6,5.1,3.8,4.4,7.2c-0.6,3.1-3.2,5.4-5.9,5.3
			l0,0c-24.4,0-45.8-23.1-47-51c-0.9-24.1,18.9-44,45.9-46.2C79.3-1.4,103.3,21.2,98.8,49.5z"/>
	</g>
	<g id="XMLID_58_">
		<path id="XMLID_61_" d="M92.1,60.6c-3.3-0.6-6.8,1.8-7.8,5.2c-0.1,0.3-0.2,0.7-0.2,1h0c-0.3,1.6-0.3,1.9-0.6,2.9
			c-0.4,1.8-0.8,3.5-1.2,5.4c-0.5,1.9-1,3.7-1.7,5.6c-0.2,0.6-0.5,1.3-0.8,1.9c-0.1,0.3-0.3,0.5-0.6,0.6c-0.8,0.3-1.6,0.6-2.3,0.8
			c-2.3,0.6-4.6,1.1-7,1.3c-1.7,0.2-3.4,0.3-5.1,0.5c-3-0.3-5.8,2-6.5,5.3c-0.7,3.5,1.1,6.7,4.2,7.2c0.3,0,0.4,0.1,0.7,0.1
			c0.1,0,0.1,0,0.1,0c0,0,0,0,0,0h0.9c0.3,0,0.5,0,0.8-0.1c2.1-0.1,4.3-0.3,6.4-0.7c3.2-0.5,6.4-1.2,9.5-2.4c1.7-0.7,3.4-1.5,5-2.8
			c1.3-1,2.3-2.4,3.2-3.8c1.4-2.2,2.4-4.6,3.3-7.1c1-2.6,1.8-5.2,2.4-7.9c0.5-1.9,0.9-3.9,1.3-5.8c0,0,0-0.1,0.1-0.2
			C97.2,64.4,95.4,61.2,92.1,60.6z"/>
	</g>
	<g id="XMLID_76_">
		<path id="XMLID_90_" d="M64,87.9c0-0.4,0.1-0.8,0.1-1.2L64,88.8C64,88.5,64,88.2,64,87.9z"/>
		<path id="XMLID_89_" d="M87.1,66.9h-2c0.3,0,0.6,0,1,0C86.4,66.9,86.8,66.9,87.1,66.9z"/>
		<path id="XMLID_88_" d="M64,88.8c0-0.3,0-0.6,0-0.9c0-0.4,0.1-0.8,0.1-1.2L64,88.8z"/>
		<path id="XMLID_83_" d="M63.4,98.4C63.4,98.4,63.4,98.4,63.4,98.4c-0.2,0-0.3,0-0.3,0l0,0C63.2,98.4,63.3,98.4,63.4,98.4z"/>
		<path id="XMLID_78_" d="M87.1,66.9h-2c0.3,0,0.6,0,1,0C86.4,66.9,86.8,66.9,87.1,66.9z"/>
	</g>
</g>
</svg>
